<svg id="Layer_1" data-name="Layer 1" xmlns="http://www.w3.org/2000/svg" viewBox="0 0 274.19 55.33"><defs><style>.cls-1{fill:#006534;}</style></defs><title>Abbraccio_Logo2019</title><path class="cls-1" d="M283.45,65.94a2.68,2.68,0,1,1-1.58-3.44l.08,0A2.69,2.69,0,0,1,283.45,65.94ZM101.94,18.4l-.07-.76,9.08-.41c4.48-.2,7.51.15,9.25,1.05,2.93,1.46,4.37,3.79,4.53,7.35.22,5-2.39,7.13-6.14,9.4-.76.5-.59.8-.35,1.13.69.74,4.73,6.45,5.14,7.1s5.48,7.67,7.23,9.58l.25.28,0-.06c1.45-3.7,5.58-14.41,6.71-17.76l1.51-4.41c1.61-4.76,4-11.87,4.76-14.06l.16-.49,4.83.08L149,17c.46,1.46,1.65,5,2.91,8.67l0,.1c1.31,3.86,2.67,7.85,3.15,9.46,1.13,3.8,5.81,16.45,6.64,18.36l.45,1-7.77-.12-.13-.57c-.47-1.89-3.08-11-4-13.85l-10.13-.16c-.84,2.36-3.82,11.2-4.62,13.77l-.15.5L130.5,54h0l-7.59.33-.23-.3c-.37-.55-3.23-5.11-5-7.84l-1.25-2c-.25-.4-3-4.28-3.53-5-1.1-1.57-1.71-2.84-3.51-2.69l-.54,0L110,55.11l-6.36.28v-.75c0-2.84-.29-12.51-.46-16.29l-.27-6C102.8,30.55,102,19.38,101.94,18.4Zm39.44,18.05,8.05.13-.32-1.12c-.89-3.08-2.6-9.06-3.36-11.67C143.53,30.12,142,34.56,141.38,36.45ZM108.29,20.66c0,1,.14,5.31.33,9.66l.14,3.1c.66,0,1.29,0,1.91,0,2.73-.13,4.8-.64,5.82-1.45a6.71,6.71,0,0,0,2.24-5.63,5.74,5.74,0,0,0-2.36-4.67,11.09,11.09,0,0,0-6.47-1.29l-.49,0H109a2.48,2.48,0,0,0-.53.06A.21.21,0,0,0,108.29,20.66ZM277.09,40l-.48-.19a14.81,14.81,0,0,0-6.57-.85,12.94,12.94,0,0,1,2.95.71l.41.16A12.6,12.6,0,0,1,275,62.33c-6.11,2.91-14.45.65-17.6-5.34-.07-.13-.14-.26-.2-.4a12.74,12.74,0,0,1-1-2.86,14.76,14.76,0,0,0,1.46,6.46l.23.46a14.74,14.74,0,0,0,18.12,7c.45-.14.89-.31,1.32-.49,0,0,0,0,0-.05h0l-.36-.73a4.22,4.22,0,0,1,.05-2.76,4.15,4.15,0,0,1,5.34-2.45,4,4,0,0,1,1.3.77,15.06,15.06,0,0,0,1.63-3.17A14.72,14.72,0,0,0,277.09,40Zm-98.9,15.76,1,0c7.27.06,12.15-4.26,15-8a1,1,0,0,0-.2-1.4l-.55-.48a.92.92,0,0,0-.67-.33h-.08a1,1,0,0,0-.77.49,14.45,14.45,0,0,1-12.06,5.44c-3-.18-5.74-.64-8.78-4.57-4.08-5.17-3.92-11.6-3.85-12.84.26-4.83,2-9,4.78-11.51A10.45,10.45,0,0,1,179.83,20a10.73,10.73,0,0,1,7.92,4.17,18.63,18.63,0,0,1,3.35,6.27,1.13,1.13,0,0,0,1,1h.31l.75-.17A1.05,1.05,0,0,0,194,30c-.13-1.11-.44-4.88-.61-7l-.06-.42-.16-.15a20.93,20.93,0,0,0-13-5.53,17.85,17.85,0,0,0-13.29,4.57A20.26,20.26,0,0,0,160.73,35c-.26,4.33.8,10.87,4.67,15.06C168.79,53.67,172.73,55.41,178.19,55.74ZM253.4,38.35l.12,0a3.3,3.3,0,1,0-.12,0Zm-39.88,29.8s-23.31-3-68.32-3-68.76,3-68.76,3c-.89,0-1.62.25-1.62.55s.73.56,1.62.56H213.52c.89,0,1.62-.25,1.62-.56S214.41,68.15,213.52,68.15ZM69.21,48.61c.5,2.65-.35,6.82-2.6,8.93C64.7,59.32,62,60.4,57.14,61.3c-1.9.36-3.35.58-4.62.78H52.4c-1,.16-1.83.29-2.7.46-1,.19-1.7.32-2.15.37-.73.08-.82-.07-1-.46l-.07-.41c-.18-1.79-1.82-11.49-2.62-15.69l-1.1-5.94c-.34-1.79-2.68-12.84-2.91-13.81l-.19-.74,9-1.69c4.45-.84,7.52-.92,9.38-.26,3.14,1,4.9,3.18,5.56,6.69.89,4.8-.78,6.87-3.56,9.18C65.26,40.88,68.32,43.85,69.21,48.61Zm-20.41-8c.67-.09,1.3-.2,1.91-.31,2.7-.51,4.69-1.32,5.6-2.27a6.79,6.79,0,0,0,1.45-5.94,5.79,5.79,0,0,0-3-4.33,11.13,11.13,0,0,0-6.64-.39l-.48.09h-.1l-.36.06a2.39,2.39,0,0,0-.52.14.23.23,0,0,0-.12.25c.14,1,.89,5.3,1.7,9.61Zm13.81,8.93c-.66-3.53-2.74-5.81-5.86-6.42a18.08,18.08,0,0,0-6.52.38l-.86.17,1.74,9.38c.86,4.54,2.23,5.8,5.61,5.16C59.44,57.75,63.8,56,62.61,49.59ZM43.22,62.73l.68.87-7.62,2L36,65.07c-.92-1.72-5.69-9.87-7.26-12.36l-10,2.59c-.25,2.53-1,11.9-1.17,14.61l0,.52-4.78,1.25.13-1.05c.53-4,2-15.52,2.27-19.06,0-.2.32-3.76.32-3.76.42-5,1.15-13.39,1.33-15.86l.05-.5,4.73-1.24.28.45c.79,1.32,2.8,4.39,4.93,7.65,2.25,3.44,4.56,7,5.42,8.41C34.3,50.1,41.94,61.11,43.22,62.73ZM27.09,49.61l-.19-.32c-1.32-2.25-5-8.53-6.52-11.11-.65,6.77-1.07,11.49-1.22,13.49Zm48.12,8.74c-.74,0-.82-.13-.93-.54l0-.41c0-1.8-.81-11.6-1.23-15.86l-.58-6c-.17-1.82-1.54-13-1.69-14l-.12-.75,9.13-.9c4.5-.44,7.58-.25,9.37.57,3,1.32,4.6,3.6,4.95,7.15.47,4.86-1.38,6.78-4.35,8.83C94.77,38,97.56,41.18,98,46c.27,2.68-1,6.76-3.36,8.67-2.07,1.6-4.89,2.44-9.77,2.91-1.93.2-3.39.29-4.67.38h-.12c-1,.07-1.85.12-2.73.21C76.32,58.28,75.65,58.35,75.21,58.35ZM86.1,39.49a17.9,17.9,0,0,0-6.53-.19l-.87.09.91,9.49c.46,4.6,1.71,6,5.14,5.64,2.75-.27,7.25-1.68,6.62-8.13C91,42.82,89.16,40.37,86.1,39.49Zm-8.86-16c.05,1,.42,5.36.85,9.72l.31,3.12c.67,0,1.31-.08,1.93-.14,2.73-.27,4.79-.91,5.78-1.77a6.82,6.82,0,0,0,2-5.79A5.77,5.77,0,0,0,85.44,24a11.21,11.21,0,0,0-6.58-1l-.49.05h-.1l-.36,0a2.65,2.65,0,0,0-.53.09A.23.23,0,0,0,77.24,23.45Zm154.19,4.43a21,21,0,0,0-12.26-7.08,18,18,0,0,0-13.74,2.92,20.26,20.26,0,0,0-7.71,12.79c-.78,4.27-.53,10.89,2.8,15.52,2.93,4,6.63,6.17,12,7.15a18,18,0,0,0,3.11.31c6.13,0,10.76-3.24,13.71-6.25a1,1,0,0,0,0-1.41l-.48-.54a.9.9,0,0,0-1.52,0,14.47,14.47,0,0,1-12.64,3.92c-3-.54-5.62-1.34-8.16-5.6-3.42-5.64-2.47-12-2.25-13.22.84-4.76,3.08-8.7,6.14-10.84a10.46,10.46,0,0,1,8.09-1.58,10.77,10.77,0,0,1,7.35,5.11,18.64,18.64,0,0,1,2.57,6.63,1.14,1.14,0,0,0,.88,1.07l.31,0,.76-.06a1.07,1.07,0,0,0,1-1.18c0-.81.09-3.19.25-7v-.16l0-.27Zm8.13-2.32c-.35,2.26-.7,4.49-1.05,6.67s-.8,4.65-1.27,7l-1.87,9.25c-.46,2.33-1,4.66-1.54,7-.53,2.14-1.05,4.27-1.58,6.36l-.11.4,6.19,1.25.06-.41c.32-2.12.66-4.29,1-6.48s.79-4.64,1.28-7l1.86-9.24c.48-2.37,1-4.7,1.54-6.93s1.06-4.32,1.62-6.55l.1-.41-6.18-1.25Zm24.62,42.77a16.53,16.53,0,0,1-1.66-29.58c8.07-3.7,19-.58,23,7.35.09.17.17.34.26.52A16.53,16.53,0,0,1,287,50.4a19.35,19.35,0,0,0-1.8-8.51c-.09-.2-.19-.4-.29-.6a19.34,19.34,0,0,0-23.64-9.5,18.07,18.07,0,0,0-1.74.63l0,.07h0l.45,1a5.45,5.45,0,0,1-7.16,6.73,5.21,5.21,0,0,1-1.69-1A19.34,19.34,0,0,0,259.34,68l.62.25a19.26,19.26,0,0,0,8.61,1.24,16.76,16.76,0,0,1-3.85-1Z" transform="translate(-12.81 -16.34)"/></svg>